<?xml version="1.0" encoding="utf-8"?>
<!DOCTYPE svg PUBLIC "-//W3C//DTD SVG 20010904//EN" "http://www.w3.org/TR/2001/REC-SVG-20010904/DTD/svg10.dtd">
<svg height="512.000000pt" preserveAspectRatio="xMidYMid meet" version="1.0" viewBox="0 0 512.000000 512.000000" width="512.000000pt" xmlns="http://www.w3.org/2000/svg">
<g fill="#FFFFFF" stroke="none" transform="translate(0.000000,512.000000) scale(0.100000,-0.100000)">
<path d="M2295 4140 c-174 -31 -293 -71 -430 -145 -255 -138 -443 -332 -565 -580 -68 -138 -104 -258 -119 -397 -13 -120 -14 -853 -1 -963 19 -170 103 -384 213 -543 149 -218 405 -406 668 -492 379 -124 810 -100 1156 66 62 30 116 54 120 54 5 0 34 -23 66 -50 65 -56 61 -54 88 -40 30 17 23 35 -36 87 l-56 48 86 69 c195 155 358 409 426 666 20 74 24 120 30 345 8 323 2 690 -12 791 -25 180 -120 410 -231 559 -176 236 -439 414 -731 495 -186 52 -477 65 -672 30z m430 -300 c137 -12 234 -38 351 -95 251 -121 429 -323 520 -587 l39 -113 3 -450 c2 -297 0 -476 -8 -527 -48 -329 -298 -631 -619 -748 -148 -54 -192 -60 -450 -60 -220 0 -246 2 -335 24 -113 29 -262 97 -350 160 -136 98 -271 268 -336 422 -60 145 -63 169 -68 624 -4 480 1 544 58 698 50 133 115 235 217 342 245 258 534 350 978 310z"/>
<path d="M2310 3665 c-334 -68 -601 -338 -656 -665 -17 -105 -20 -801 -3 -913 6 -40 27 -110 46 -157 106 -251 306 -422 572 -489 119 -30 459 -31 572 -2 115 30 179 57 258 110 163 108 265 236 337 421 l29 75 0 495 c0 459 -1 499 -19 550 -106 308 -353 525 -660 579 -83 15 -396 12 -476 -4z m540 -182 c182 -67 339 -218 408 -391 l27 -67 3 -467 3 -467 -26 -76 c-63 -189 -245 -357 -443 -411 -79 -22 -336 -30 -443 -15 -267 39 -496 243 -548 489 -7 34 -11 200 -11 470 0 344 3 428 15 477 34 132 115 255 223 340 66 53 200 122 263 135 24 5 141 8 259 6 187 -2 222 -5 270 -23z"/>
<path d="M2338 3387 c-127 -44 -227 -132 -288 -255 -58 -118 -60 -136 -60 -598 0 -419 0 -423 24 -493 56 -164 184 -292 339 -336 46 -13 92 -16 230 -13 l172 3 77 37 c129 62 229 182 272 327 23 79 24 887 1 975 -21 80 -57 144 -121 215 -114 125 -211 161 -434 161 -125 0 -155 -4 -212 -23z m304 -136 c32 -6 73 -17 93 -27 52 -24 114 -89 141 -147 l24 -52 0 -481 c0 -529 1 -517 -62 -597 -63 -79 -173 -115 -323 -104 -109 8 -172 35 -230 99 -76 85 -76 87 -73 630 l3 473 29 53 c71 128 216 183 398 153z"/>
<path d="M3839 1595 c-14 -22 -103 -199 -199 -393 -156 -316 -172 -354 -159 -368 14 -13 18 -13 37 3 24 21 354 759 349 782 -2 11 -11 3 -28 -24z"/>
<path d="M3911 1383 c7 -10 43 -49 78 -87 l64 -70 -24 -15 c-61 -41 -141 -106 -146 -119 -7 -16 7 -44 23 -49 9 -3 55 30 203 145 15 11 22 25 19 34 -7 18 -204 178 -220 178 -6 0 -5 -6 3 -17z"/>
</g>
</svg>